<?xml version="1.0" encoding="UTF-8"?>
<svg id="Layer_1" xmlns="http://www.w3.org/2000/svg" version="1.1" viewBox="0 0 7746.96 5477.65">
  <!-- Generator: Adobe Illustrator 29.2.1, SVG Export Plug-In . SVG Version: 2.1.0 Build 116)  -->
  <defs>
    <style>
      .st0 {
        fill: #fff;
      }
    </style>
  </defs>
  <polygon class="st0" points="1433.72 1495.4 1886.17 2017.79 2099.62 2017.79 2099.62 1105.26 1840.44 1105.26 1839.62 1602.03 1404.92 1105.44 1174.04 1105.22 1174.04 2017.79 1433.72 2017.79 1433.72 1495.4"/>
  <polygon class="st0" points="3052.4 1816.24 2626.8 1816.24 2626.36 1648.74 3024.58 1648.19 3024.58 1447.71 2626.37 1446.95 2626.79 1306.8 3043.73 1306.8 3043.73 1105.44 2366.34 1105.44 2366.34 2017.79 3053.1 2017.79 3052.4 1816.24"/>
  <path class="st0" d="M3601.56,1669.74c77.64,27.73,144.69,51.67,144.69,94.09-.44,49.21-58.5,59.55-107.13,59.55-91.69,0-164.33-27.42-287.91-108.68l-32.55-21.4v238.92l11.35,5.87c89.8,46.54,167.35,86.73,325.01,86.73,119.11,0,219.69-35.11,283.2-98.87,48.58-48.78,74.11-113.14,73.83-186.05,0-197.48-175.44-261.88-303.55-308.92-75.57-27.75-140.84-51.72-140.84-89.31,0-30.15,43.01-50.4,107.01-50.4,69.09,0,141.71,20.69,267.96,76.3l29.34,12.93.96-215.56-12.84-5.46c-114.21-48.6-205.43-69.32-305.07-69.32-211.76,0-354.04,108.77-354.04,270.66,0,201.59,173.73,263.63,300.58,308.94Z"/>
  <polygon class="st0" points="4549.53 1509.66 4754.53 1746.61 4807.44 1747.14 5011.76 1509.38 5012.09 2017.81 5272.28 2017.81 5271.7 1105.28 5052.02 1105.28 4780.74 1417.5 4509.96 1105.28 4289.6 1105.42 4289.6 2017.81 4549.53 2017.81 4549.53 1509.66"/>
  <path class="st0" d="M5875.16,1845.07h362.03l71.86,172.71h280.28l-405.96-912.53-280.49.21-369.45,912.33h276.57l65.16-172.71ZM5948.73,1651.43l98.63-260.05,108.46,260.05h-207.09Z"/>
  <path class="st0" d="M3551.47,2357.18c-21,0-38.08,17.09-38.08,38.09v466.24c0,10.18,3.97,19.76,11.18,26.97,7.19,7.16,16.75,11.12,26.91,11.12h.08l183.81-.49c20.93-.08,37.95-17.18,37.95-38.09v-465.75c0-20.99-17.08-38.09-38.08-38.09h-183.76Z"/>
  <path class="st0" d="M4956.44,2357.2h-183.58c-21,0-38.08,17.09-38.08,38.09v465.71c0,20.99,17.08,38.09,38.08,38.09h183.75c21,0,38.08-17.09,38.08-38.11l-.17-465.73c-.02-20.97-17.1-38.05-38.08-38.05Z"/>
  <path class="st0" d="M4124.09,2395.29v465.75c0,20.93,17.01,38.03,37.93,38.11l183.75.64h.17c10.13,0,19.66-3.94,26.85-11.1,7.23-7.18,11.21-16.79,11.21-27.01l-.35-466.4c0-20.99-17.08-38.07-38.08-38.07h-183.41c-21,0-38.08,17.09-38.08,38.09Z"/>
  <path class="st0" d="M7230.33,4068.16c-906.26-174-5784.43,143.21-6753.11,208.55l-5.23.37c-19.71,1.32-35.92,3.19-51.01,5.84-61.98,10.94-80.96,51.97-78.04,86.71,3.07,36.63,29.75,66.43,59.49,66.43,45.15,0,123.21-5.47,192.07-10.28,25.11-1.77,49.32-3.46,70.83-4.81,896.22-56.5,6505.58-308.83,6562.13-311.36l177.31-7.98-174.44-33.46Z"/>
  <ellipse class="st0" cx="7279.65" cy="1238.56" rx="133.1" ry="133.12"/>
  <path class="st0" d="M5481.75,2760.42c0,71.68,58.3,129.99,129.96,129.99l1663.23-.02c72.5,0,131.48-59,131.48-131.5v-842.82c0-71.68-58.3-129.99-129.96-129.99s-129.95,58.3-129.95,129.99v624.87c0,47.65-35.77,80.92-87.01,80.92l-1445.33.02c-70.54,0-132.42,64.75-132.42,138.54Z"/>
  <path class="st0" d="M485.9,3679.35h684.58c8.34,61.44,61.14,108.97,124.82,108.97h1034.8v-897.92h574.64c36.53,0,71.6-15.51,96.18-42.56,24.57-27.03,36.67-63.52,33.18-100.13-6.49-68.13-66.62-123.54-134.04-123.54h-1730.73v795.21h-465.54c-50.86,0-92.23-41.37-92.23-92.25V1235.2c0-71.68-58.3-129.99-129.96-129.99s-129.96,58.3-129.96,129.99v2309.87c0,74.04,60.22,134.28,134.25,134.28ZM1429.28,3528.35v-637.95h504.96c74.96,0,135.95,60.99,135.95,135.98v501.97h-640.91Z"/>
</svg>